#N canvas 0 22 450 300 10;
#X obj 147 136 tgl 15 0 empty empty empty 17 7 0 10 -262144 -1 -1 0
1;
#N canvas 274 108 338 358 ascii.to.symbol 0;
#X msg 193 127 set \$1%c;
#X obj 43 32 sel 13 10;
#X obj 94 127 makefilename %c;
#X obj 43 150 symbol, f 9;
#X obj 43 194 outlet;
#X obj 43 10 inlet;
#X msg 43 172 \$1;
#X obj 43 62 t b b b;
#X msg 43 87 set %c;
#X msg 62 111 symbol;
#X connect 0 0 2 0;
#X connect 1 1 7 0;
#X connect 1 2 2 0;
#X connect 2 0 0 0;
#X connect 2 0 3 1;
#X connect 3 0 6 0;
#X connect 5 0 1 0;
#X connect 6 0 4 0;
#X connect 7 0 8 0;
#X connect 7 1 9 0;
#X connect 7 2 3 0;
#X connect 8 0 2 0;
#X connect 9 0 3 1;
#X restore 30 134 pd ascii.to.symbol;
#X msg 30 178 \; pd quit;
#X obj 30 156 route quit start, f 20;
#X obj 88 180 bang;
#X obj 88 202 outlet;
#X obj 30 43 inlet;
#X obj 30 65 list fromsymbol;
#X msg 30 87 send \$1;
#X obj 30 111 netreceive -b 3000, f 20;
#X connect 1 0 3 0;
#X connect 3 0 2 0;
#X connect 3 1 4 0;
#X connect 4 0 5 0;
#X connect 6 0 7 0;
#X connect 7 0 8 0;
#X connect 8 0 9 0;
#X connect 9 0 1 0;
#X connect 9 1 0 0;
